# xmcd CD database file
#
# Track frame offsets:
#	150
#	19650
#	37948
#	59593
#	72904
#	104062
#	119333
#	141091
#	159247
#	180397
#	201872
#	225086
#	239764
#
# Disc length: 3399 seconds
#
# Revision: 0
# Processed by: cddbd v1.5.1PL2 Copyright (c) Steve Scherf et al.
# Submitted via: CDex 1.51
#
DISCID=ad0d450d
DTITLE=Doug Duffey - Changin' times
DYEAR=1900
DGENRE=Blues
TTITLE0=Bitter Wine
TTITLE1=Carnival Time
TTITLE2=Changin' Times
TTITLE3=Fallen Angels
TTITLE4=The 1st Taste
TTITLE5=Home Sweet Home
TTITLE6=Love Into My Life
TTITLE7=It's Time
TTITLE8=Nothing Ventured
TTITLE9=Reach Out For Me
TTITLE10=Sweet Disposition
TTITLE11=Sweet Soul Sister
TTITLE12=Working Man's Blues
EXTD=
EXTT0=
EXTT1=
EXTT2=
EXTT3=
EXTT4=
EXTT5=
EXTT6=
EXTT7=
EXTT8=
EXTT9=
EXTT10=
EXTT11=
EXTT12=
PLAYORDER=
